<svg width="93" height="40" viewBox="0 0 93 40" fill="none" xmlns="http://www.w3.org/2000/svg">
<path d="M2.75 39.5C2.71667 39.5 2.6 39.4667 2.4 39.4C2.3 39.3667 2.18333 39.25 2.05 39.05C2.01667 38.95 1.98333 38.85 1.95 38.75C1.91667 38.65 1.9 38.55 1.9 38.45C1.8 37.95 1.75 37.45 1.75 36.95V33.5C1.75 33.2 1.71667 32.9 1.65 32.6C1.58333 32.3 1.51667 32 1.45 31.7C1.45 31.6333 1.41667 31.5333 1.35 31.4C1.31667 31.3 1.26667 31.2 1.2 31.1C1.13333 30.9667 1.06667 30.85 1 30.75C0.866667 30.5167 0.766667 30.2667 0.7 30C0.633333 29.7333 0.583333 29.4833 0.55 29.25C0.516667 28.8833 0.516667 28.5333 0.55 28.2C0.616667 28 0.666667 27.8167 0.7 27.65C0.733333 27.45 0.783333 27.2667 0.85 27.1C0.95 26.8333 1.03333 26.5667 1.1 26.3C1.16667 26 1.25 25.7 1.35 25.4L2.1 22.95C2.33333 22.25 2.63333 21.5333 3 20.8C3.36667 20.1 3.71667 19.3167 4.05 18.45C4.11667 18.25 4.2 18.0333 4.3 17.8C4.43333 17.4333 4.56667 17.0833 4.7 16.75C4.86667 16.3833 5.01667 16.0333 5.15 15.7L5.9 13.6C5.96667 13.4667 6.01667 13.3333 6.05 13.2C6.08333 13.0667 6.11667 12.9333 6.15 12.8C6.41667 12.1333 6.68333 11.5 6.95 10.9C7.15 10.5 7.28333 10.0667 7.35 9.6C7.41667 9.13333 7.41667 8.66667 7.35 8.2C7.31667 8 7.28333 7.8 7.25 7.6C7.25 7.36667 7.25 7.15 7.25 6.95C7.25 6.85 7.21667 6.76667 7.15 6.7C7.11667 6.6 7.11667 6.5 7.15 6.4C7.18333 6.33333 7.21667 6.26667 7.25 6.2C7.31667 6.13333 7.36667 6.06667 7.4 6C7.5 5.63333 7.65 5.31667 7.85 5.05C8.08333 4.75 8.33333 4.48333 8.6 4.25C8.73333 4.11667 8.91667 4.01667 9.15 3.95C9.28333 3.88333 9.4 3.81667 9.5 3.75C9.63333 3.68333 9.75 3.6 9.85 3.5C10.0167 3.36667 10.2 3.28333 10.4 3.25C10.6667 3.21666 10.95 3.11666 11.25 2.95C11.5167 2.78333 11.8167 2.73333 12.15 2.8H12.6C12.8333 2.8 13.0833 2.88333 13.35 3.05C13.4167 3.08333 13.4833 3.13333 13.55 3.2C13.65 3.23333 13.75 3.28333 13.85 3.35C14.1167 3.55 14.25 3.8 14.25 4.1C14.25 4.33333 14.2667 4.55 14.3 4.75C14.3667 4.95 14.4167 5.16667 14.45 5.4C14.5167 5.6 14.5167 5.81666 14.45 6.05C14.4167 6.11667 14.4 6.2 14.4 6.3C14.4 6.36667 14.3833 6.43333 14.35 6.5C14.35 6.63333 14.3333 6.76666 14.3 6.9C14.3 7.03333 14.2833 7.16667 14.25 7.3C14.15 7.53333 14.1833 7.76666 14.35 8C14.6167 8.43333 14.85 8.88333 15.05 9.35C15.2833 9.81667 15.5167 10.2833 15.75 10.75L16.65 12.35C16.9167 12.7833 17.1833 13.3 17.45 13.9C17.5167 14 17.5667 14.1 17.6 14.2C17.6667 14.3 17.7333 14.4 17.8 14.5C17.9 14.6667 17.9833 14.85 18.05 15.05C18.15 15.25 18.25 15.45 18.35 15.65C18.6167 16.15 18.8333 16.6667 19 17.2C19.2 17.7 19.4 18.2333 19.6 18.8C19.6 18.8333 19.6 18.8667 19.6 18.9C19.6333 18.9 19.65 18.9167 19.65 18.95C19.6833 19.1833 19.85 19.3 20.15 19.3C20.25 19.2667 20.35 19.25 20.45 19.25C20.5833 19.25 20.7 19.25 20.8 19.25C21.1667 19.25 21.4833 19.3167 21.75 19.45C21.9167 19.4833 22.0833 19.5833 22.25 19.75C22.5167 20.0167 22.7 20.2333 22.8 20.4C22.9 20.5667 22.9667 20.8167 23 21.15C23.1333 21.7833 23 22.3333 22.6 22.8L22.3 23.05C22.2333 23.1167 22.15 23.1833 22.05 23.25C21.95 23.2833 21.8667 23.3333 21.8 23.4C21.6333 23.5333 21.5333 23.6333 21.5 23.7C21.5 23.7667 21.55 23.9167 21.65 24.15L22.4 25.95C22.7 26.6167 23 27.2833 23.3 27.95C23.6333 28.6167 23.9667 29.2833 24.3 29.95C24.4333 30.1833 24.5333 30.4167 24.6 30.65C24.7 30.8833 24.7667 31.1333 24.8 31.4C24.8333 31.6 24.8333 31.8 24.8 32C24.8 32.2 24.7833 32.4 24.75 32.6C24.75 32.6333 24.7167 32.75 24.65 32.95C24.55 33.0833 24.45 33.2167 24.35 33.35C24.2833 33.4833 24.2 33.6167 24.1 33.75C23.8333 34.1167 23.6167 34.5333 23.45 35C23.3833 35.3 23.1667 35.5333 22.8 35.7C22.6 35.8 22.3833 35.8 22.15 35.7C21.85 35.6 21.65 35.4 21.55 35.1L21.45 34.85C21.35 34.5167 21.2 34.2 21 33.9C20.8667 33.6667 20.7333 33.4333 20.6 33.2C20.5 32.9333 20.3833 32.6833 20.25 32.45C20.2167 32.3833 20.2 32.3333 20.2 32.3C20.2 32.2333 20.1833 32.1833 20.15 32.15C20.1167 31.95 20.05 31.7667 19.95 31.6C19.8833 31.4 19.8 31.2167 19.7 31.05C19.5 30.55 19.2833 30.0667 19.05 29.6C18.85 29.1 18.6333 28.6 18.4 28.1L17.65 26.5C17.6167 26.4 17.5833 26.3 17.55 26.2C17.5167 26.0667 17.4667 25.9333 17.4 25.8L16.8 24.45C16.8 24.3833 16.7667 24.2833 16.7 24.15C16.5333 23.8833 16.3167 23.7333 16.05 23.7C15.8167 23.7 15.6 23.6833 15.4 23.65C15.2 23.6167 15 23.6 14.8 23.6C14.2667 23.6 13.7333 23.65 13.2 23.75C12.6667 23.85 12.1667 24.0333 11.7 24.3C11.0667 24.6667 10.4167 24.9 9.75 25C9.61667 25 9.48333 25.0167 9.35 25.05C9.21667 25.0833 9.08333 25.1333 8.95 25.2C8.75 25.3333 8.63333 25.4833 8.6 25.65C8.53333 25.85 8.5 26 8.5 26.1L8.35 26.8C8.31667 27.0333 8.18333 27.2667 7.95 27.5C7.78333 27.6667 7.55 27.75 7.25 27.75C6.81667 27.6833 6.53333 27.4667 6.4 27.1C6.36667 27 6.33333 26.9 6.3 26.8C6.26667 26.7 6.23333 26.5833 6.2 26.45C6.06667 26.65 6.05 26.8167 6.15 26.95C6.21667 27.0833 6.18333 27.2 6.05 27.3C5.98333 27.3667 5.96667 27.4167 6 27.45C6.06667 27.5833 6.05 27.7 5.95 27.8C5.85 27.9 5.81667 28.0167 5.85 28.15C5.88333 28.2167 5.88333 28.3 5.85 28.4C5.68333 28.6333 5.56667 28.9167 5.5 29.25C5.53333 29.3833 5.45 29.4833 5.25 29.55C5.18333 29.55 5.15 29.5833 5.15 29.65C5.08333 29.75 5.01667 29.9 4.95 30.1C4.91667 30.2667 4.86667 30.45 4.8 30.65C4.76667 30.8167 4.71667 30.9833 4.65 31.15L4.35 32.4V32.6C4.35 32.9 4.31667 33.2 4.25 33.5C4.21667 33.7667 4.2 34.05 4.2 34.35L4.05 36C4.01667 36.2333 3.98333 36.4667 3.95 36.7C3.95 36.9667 3.95 37.2333 3.95 37.5C3.91667 37.7 3.88333 37.8833 3.85 38.05C3.85 38.25 3.81667 38.45 3.75 38.65C3.68333 38.95 3.56667 39.1667 3.4 39.3C3.26667 39.5 3.05 39.5667 2.75 39.5ZM9.25 19.25H9.3C9.63333 19.1833 9.95 19.1333 10.25 19.1C10.55 19.0667 10.85 19.0333 11.15 19C11.35 18.9667 11.55 18.95 11.75 18.95C11.95 18.9167 12.15 18.9 12.35 18.9H13.4C13.4667 18.9 13.5333 18.9 13.6 18.9C13.6667 18.8667 13.7167 18.85 13.75 18.85C13.8167 18.85 13.85 18.7833 13.85 18.65C13.75 18.5167 13.6667 18.3833 13.6 18.25C13.5333 18.1167 13.4667 17.9833 13.4 17.85C13.2 17.3833 12.9333 16.9833 12.6 16.65C12.5667 16.5833 12.5333 16.5333 12.5 16.5C12.4667 16.4333 12.4333 16.3667 12.4 16.3C12.3667 16.2333 12.3167 16.1667 12.25 16.1C12.2167 16 12.1667 15.9167 12.1 15.85C11.9333 15.7167 11.7667 15.75 11.6 15.95L11.45 16.35C11.4167 16.6167 11.3667 16.9 11.3 17.2C11.2333 17.4667 11.1667 17.7333 11.1 18C11.1 18.0667 11.0667 18.1667 11 18.3C10.9333 18.5 10.7667 18.65 10.5 18.75C10.2667 18.85 10.0167 18.8167 9.75 18.65L9.45 18.45C9.45 18.45 9.41667 18.45 9.35 18.45C9.28333 18.5833 9.25 18.6833 9.25 18.75C9.25 18.8167 9.25 18.8833 9.25 18.95C9.28333 19.0167 9.26667 19.0833 9.2 19.15C9.13333 19.2167 9.15 19.25 9.25 19.25ZM49.2984 37.95H49.0484C48.9484 37.95 48.8318 37.9333 48.6984 37.9C48.5984 37.9 48.4818 37.9 48.3484 37.9C48.1151 37.9333 47.9151 37.8833 47.7484 37.75C47.6151 37.65 47.4651 37.5167 47.2984 37.35C47.2318 37.2833 47.1484 37.2 47.0484 37.1C46.9818 37.0333 46.8984 36.9833 46.7984 36.95C46.7318 36.9167 46.6651 36.8333 46.5984 36.7C46.5651 36.6333 46.5151 36.55 46.4484 36.45C46.4151 36.35 46.3651 36.25 46.2984 36.15C46.2318 35.9833 46.2151 35.8 46.2484 35.6C46.2818 35.5 46.2984 35.4 46.2984 35.3C46.3318 35.2333 46.3484 35.15 46.3484 35.05C46.3484 34.7167 46.3484 34.4 46.3484 34.1C46.3484 33.7667 46.3151 33.4333 46.2484 33.1C46.2151 33 46.1984 32.9 46.1984 32.8C46.1984 32.6667 46.1818 32.5333 46.1484 32.4C46.1484 32.1667 46.1318 31.9833 46.0984 31.85C46.0984 31.6833 46.0818 31.5333 46.0484 31.4C46.0484 31.2667 46.0484 31.1333 46.0484 31C46.0151 30.7667 45.9984 30.55 45.9984 30.35C45.9984 30.15 45.9651 29.9333 45.8984 29.7V29.55C45.8984 29.1167 45.8651 28.7 45.7984 28.3C45.7651 27.8667 45.7484 27.4333 45.7484 27C45.7484 26.8 45.7318 26.65 45.6984 26.55C45.6651 26.25 45.6318 25.95 45.5984 25.65C45.5984 25.3167 45.5984 24.9833 45.5984 24.65C45.5984 24.35 45.5984 24.05 45.5984 23.75C45.5984 23.4167 45.5651 23.1 45.4984 22.8C45.4651 22.7333 45.4484 22.65 45.4484 22.55C45.4484 22.45 45.4484 22.3667 45.4484 22.3C45.4484 20.9333 45.4484 19.5667 45.4484 18.2C45.4484 16.8333 45.4651 15.4833 45.4984 14.15C45.4984 13.9833 45.4984 13.8167 45.4984 13.65C45.5318 13.4833 45.5484 13.3167 45.5484 13.15C45.5484 13.05 45.5484 12.95 45.5484 12.85C45.5818 12.75 45.5984 12.6667 45.5984 12.6C45.5984 12.2333 45.5984 11.8667 45.5984 11.5C45.6318 11.1 45.6651 10.7167 45.6984 10.35C45.7651 10.25 45.7651 10.1167 45.6984 9.95C45.6651 9.91666 45.6151 9.9 45.5484 9.9L45.3984 10.05C45.3318 10.15 45.2484 10.25 45.1484 10.35C45.0484 10.45 44.9651 10.55 44.8984 10.65C44.7651 10.85 44.6151 11.0667 44.4484 11.3C44.3151 11.5 44.1651 11.7167 43.9984 11.95C43.7651 12.35 43.5151 12.7667 43.2484 13.2C42.9818 13.6 42.7818 14.0333 42.6484 14.5C42.6151 14.5667 42.5818 14.65 42.5484 14.75C42.5151 14.8167 42.4818 14.8833 42.4484 14.95C42.3151 15.2833 42.1651 15.6167 41.9984 15.95C41.8651 16.25 41.7318 16.5833 41.5984 16.95C41.3984 17.3833 41.1151 17.7833 40.7484 18.15C40.6818 18.2167 40.6151 18.25 40.5484 18.25C40.3818 18.35 40.1984 18.45 39.9984 18.55C39.7984 18.6167 39.5818 18.6333 39.3484 18.6H39.0484C38.7484 18.6667 38.4984 18.6 38.2984 18.4C38.0651 18.3333 37.8651 18.2167 37.6984 18.05C37.5651 17.8833 37.4151 17.7 37.2484 17.5C37.1151 17.3333 36.9984 17.1333 36.8984 16.9C36.8318 16.6667 36.7984 16.4333 36.7984 16.2C36.7651 16.1333 36.7484 16.05 36.7484 15.95C36.7484 15.85 36.7484 15.7667 36.7484 15.7C36.7151 15.6333 36.6818 15.5667 36.6484 15.5C36.6151 15.4 36.5984 15.3333 36.5984 15.3C36.5984 15.2333 36.5651 15.1333 36.4984 15C36.4318 14.8667 36.2984 14.6 36.0984 14.2C35.8984 13.8 35.7984 13.6167 35.7984 13.65C35.6984 13.4833 35.5984 13.3 35.4984 13.1C35.3984 12.9 35.2818 12.7167 35.1484 12.55L34.8484 12C34.7818 12 34.7318 11.9833 34.6984 11.95L34.6484 12C34.6484 12.1 34.6484 12.2 34.6484 12.3C34.6484 12.4 34.6651 12.5 34.6984 12.6C34.7651 12.9667 34.7984 13.3333 34.7984 13.7C34.7984 14.0667 34.7651 14.4333 34.6984 14.8C34.6984 15 34.7151 15.1667 34.7484 15.3C34.7818 15.3667 34.7984 15.4833 34.7984 15.65C34.7984 15.85 34.7984 16.05 34.7984 16.25C34.8318 16.45 34.8318 16.65 34.7984 16.85C34.7651 17.0167 34.7484 17.2 34.7484 17.4C34.7818 17.5667 34.8151 17.7333 34.8484 17.9V18.4C34.7818 18.6 34.7818 18.8167 34.8484 19.05C34.8818 19.2167 34.8818 19.4 34.8484 19.6C34.8484 19.7667 34.8651 19.9333 34.8984 20.1C34.8984 20.2667 34.8651 20.4833 34.7984 20.75C34.5984 21.55 34.6484 22.3167 34.9484 23.05C34.9818 23.1833 35.0151 23.3167 35.0484 23.45C35.0818 23.55 35.0818 23.6667 35.0484 23.8C35.0484 23.9 35.0484 24 35.0484 24.1C35.0484 24.2 35.0651 24.3 35.0984 24.4C35.1651 24.5333 35.1984 24.6667 35.1984 24.8C35.2318 25.1667 35.2484 25.45 35.2484 25.65C35.2818 25.85 35.3151 26 35.3484 26.1C35.4151 26.4667 35.4818 26.85 35.5484 27.25C35.6151 27.6167 35.6818 27.9833 35.7484 28.35C35.8151 28.7833 35.8818 29.2167 35.9484 29.65C36.0484 30.05 36.0984 30.4667 36.0984 30.9C36.0984 31.0333 36.1151 31.1333 36.1484 31.2C36.2151 31.4667 36.2484 31.75 36.2484 32.05C36.2484 32.3167 36.2651 32.5833 36.2984 32.85C36.2984 33.2167 36.2151 33.5 36.0484 33.7C35.9818 33.8333 35.9484 33.9167 35.9484 33.95C35.6484 34.5833 35.1151 34.95 34.3484 35.05C34.2484 35.0833 34.1484 35.1 34.0484 35.1C33.9484 35.1 33.8484 35.1 33.7484 35.1C33.3818 35.1667 33.1151 35.1 32.9484 34.9C32.8818 34.8333 32.8151 34.8 32.7484 34.8C32.5818 34.8333 32.4151 34.7333 32.2484 34.5C32.1484 34.3333 31.9984 34.1833 31.7984 34.05C31.6984 33.95 31.6151 33.7833 31.5484 33.55C31.5151 33.4833 31.4818 33.4167 31.4484 33.35C31.4484 33.2833 31.4484 33.2167 31.4484 33.15C31.4151 32.6833 31.3651 32.2333 31.2984 31.8C31.2318 31.3333 31.1818 30.8833 31.1484 30.45L31.0984 29.95C31.0651 29.8167 31.0484 29.7 31.0484 29.6C31.0484 29.5 31.0318 29.3833 30.9984 29.25V28.95C30.8984 28.4833 30.8484 28.0167 30.8484 27.55C30.8484 27.05 30.8651 26.5667 30.8984 26.1C30.9318 25.8 30.9484 25.5 30.9484 25.2C30.9484 24.8667 30.9651 24.55 30.9984 24.25V23.1C30.9984 22.9333 30.9984 22.7667 30.9984 22.6C30.9984 22.4 30.9818 22.2167 30.9484 22.05C30.9151 21.85 30.8984 21.65 30.8984 21.45C30.8984 21.25 30.8984 21.05 30.8984 20.85V18.55C30.8651 18.2833 30.8484 18.0167 30.8484 17.75C30.8484 17.45 30.8484 17.1667 30.8484 16.9C30.8484 16.8 30.8484 16.7 30.8484 16.6C30.8484 16.4667 30.8318 16.35 30.7984 16.25C30.7984 16.0833 30.7818 15.9333 30.7484 15.8C30.7484 15.6333 30.7318 15.4833 30.6984 15.35V15C30.6318 14.7 30.5984 14.4167 30.5984 14.15C30.5984 13.85 30.5984 13.55 30.5984 13.25C30.5984 12.9833 30.5984 12.7167 30.5984 12.45C30.5984 12.15 30.5651 11.8833 30.4984 11.65C30.4651 11.55 30.4484 11.45 30.4484 11.35C30.4484 11.25 30.4484 11.15 30.4484 11.05C30.4484 10.8167 30.4484 10.6 30.4484 10.4C30.4484 10.1667 30.4151 9.93333 30.3484 9.7C30.3151 9.63333 30.2984 9.51667 30.2984 9.35V6.85C30.2984 6.68333 30.2984 6.53333 30.2984 6.4C30.2984 6.23333 30.2651 6.08333 30.1984 5.95C30.0984 5.61667 30.1151 5.23333 30.2484 4.8C30.3151 4.63333 30.3818 4.51667 30.4484 4.45C30.5151 4.35 30.5818 4.25 30.6484 4.15C30.7151 4.05 30.7651 3.95 30.7984 3.85C30.8651 3.75 30.9151 3.7 30.9484 3.7C31.0818 3.66666 31.1818 3.61667 31.2484 3.55C31.3484 3.48333 31.4318 3.41666 31.4984 3.35L31.7984 3.2C31.8651 3.16667 31.9651 3.15 32.0984 3.15C32.2651 3.18333 32.4318 3.21666 32.5984 3.25C32.7984 3.25 32.9818 3.26666 33.1484 3.3C33.3484 3.3 33.4984 3.38333 33.5984 3.55C33.7651 3.78333 33.9318 4.01667 34.0984 4.25C34.2651 4.48333 34.3984 4.73333 34.4984 5C34.5984 5.23333 34.7318 5.43333 34.8984 5.6C35.0984 5.86667 35.2984 6.13333 35.4984 6.4C35.6984 6.66667 35.9151 6.93333 36.1484 7.2C36.2484 7.3 36.3318 7.41667 36.3984 7.55C36.4984 7.68333 36.5818 7.81667 36.6484 7.95C36.8151 8.18333 36.9651 8.41667 37.0984 8.65C37.2651 8.85 37.4318 9.06667 37.5984 9.3L38.3484 10.5C38.4151 10.6333 38.4818 10.7667 38.5484 10.9C38.6151 11 38.6818 11.1 38.7484 11.2C38.8151 11.3667 38.9151 11.3833 39.0484 11.25C39.1818 11.0833 39.3151 10.9167 39.4484 10.75C39.6151 10.55 39.7651 10.3667 39.8984 10.2C40.1984 9.83333 40.4984 9.45 40.7984 9.05C41.0984 8.65 41.4151 8.26667 41.7484 7.9L42.0484 7.45C42.2818 7.11667 42.4984 6.8 42.6984 6.5C42.9318 6.16666 43.1484 5.83333 43.3484 5.5C43.5818 5.13333 43.7818 4.76667 43.9484 4.4C44.1484 4.03333 44.3151 3.66667 44.4484 3.3L45.0484 1.95C45.2484 1.55 45.5318 1.21666 45.8984 0.949997C46.3984 0.549998 46.9484 0.399998 47.5484 0.499997C47.7818 0.533332 47.9984 0.599999 48.1984 0.699998C48.3984 0.766665 48.5984 0.833332 48.7984 0.899998C48.9984 0.966666 49.1318 1.11667 49.1984 1.35C49.2651 1.45 49.3151 1.55 49.3484 1.65C49.3818 1.75 49.3984 1.85 49.3984 1.95C49.4318 2.18333 49.4818 2.4 49.5484 2.6C49.6151 2.76667 49.6651 2.96667 49.6984 3.2L49.7484 3.7C49.8151 4 49.8818 4.3 49.9484 4.6C50.0484 4.9 50.1318 5.2 50.1984 5.5V5.6C50.2318 5.93333 50.2651 6.26667 50.2984 6.6C50.3651 6.9 50.3818 7.21667 50.3484 7.55V8.7C50.3484 8.86667 50.3484 9.03333 50.3484 9.2C50.3484 9.36666 50.3318 9.53333 50.2984 9.7C50.2651 9.93333 50.2484 10.1667 50.2484 10.4C50.2484 10.6 50.2484 10.8167 50.2484 11.05C50.2151 11.1833 50.1984 11.3167 50.1984 11.45C50.1984 11.5833 50.1818 11.7167 50.1484 11.85C50.1151 11.9833 50.0984 12.1167 50.0984 12.25C50.0984 12.35 50.0984 12.4833 50.0984 12.65V14.05C50.0984 14.2833 50.0818 14.5 50.0484 14.7C50.0484 14.9 50.0318 15.1167 49.9984 15.35C49.9651 15.4833 49.9484 15.6167 49.9484 15.75C49.9484 15.85 49.9484 15.9667 49.9484 16.1V19.15C49.9484 19.3833 49.9484 19.6167 49.9484 19.85C49.9818 20.0833 50.0151 20.3167 50.0484 20.55C50.0818 20.7167 50.0984 20.9 50.0984 21.1C50.0984 21.2667 50.0984 21.4333 50.0984 21.6C50.1318 21.8333 50.1484 22.0667 50.1484 22.3C50.1484 22.5 50.1651 22.7333 50.1984 23V23.55C50.2318 23.8167 50.2484 24.1 50.2484 24.4C50.2484 24.6667 50.2484 24.9333 50.2484 25.2V25.85C50.3151 26.0833 50.3484 26.3333 50.3484 26.6C50.3484 26.8667 50.3651 27.1333 50.3984 27.4V27.75C50.4651 27.95 50.4984 28.15 50.4984 28.35C50.4984 28.55 50.5151 28.75 50.5484 28.95L50.6984 30.75C50.7318 30.8833 50.7484 31.0167 50.7484 31.15C50.7818 31.25 50.7984 31.3667 50.7984 31.5C50.8318 31.6333 50.8484 31.7667 50.8484 31.9C50.8484 32 50.8651 32.1167 50.8984 32.25C50.8984 32.2833 50.8984 32.3333 50.8984 32.4C50.9318 32.4667 50.9484 32.5333 50.9484 32.6C50.9484 32.8333 50.9651 33.0833 50.9984 33.35C51.0651 33.6167 51.1151 33.8833 51.1484 34.15L51.3484 35.55C51.3484 35.75 51.3318 35.8833 51.2984 35.95C51.2651 36.15 51.1818 36.3333 51.0484 36.5C50.9484 36.7 50.8651 36.8833 50.7984 37.05C50.7984 37.0833 50.7818 37.1 50.7484 37.1C50.5151 37.3 50.2818 37.4667 50.0484 37.6C49.8151 37.7667 49.5651 37.8833 49.2984 37.95ZM62.4707 35.5C62.2707 35.5 62.1374 35.4833 62.0707 35.45C61.9374 35.3833 61.8207 35.3333 61.7207 35.3C61.6207 35.2667 61.5207 35.2333 61.4207 35.2C61.3207 35.1333 61.2207 35.0667 61.1207 35C61.054 34.9 60.9874 34.8 60.9207 34.7C60.854 34.6333 60.7874 34.6 60.7207 34.6C60.5207 34.6 60.4207 34.5 60.4207 34.3C60.3874 34.1 60.354 33.9 60.3207 33.7C60.2874 33.5 60.254 33.3 60.2207 33.1C60.1874 32.8 60.154 32.5 60.1207 32.2C60.1207 31.9 60.0874 31.6167 60.0207 31.35V30.9C60.0207 30.7667 60.004 30.65 59.9707 30.55C59.9707 30.45 59.9707 30.3333 59.9707 30.2C59.904 30.0333 59.904 29.9 59.9707 29.8C60.0374 29.2 60.0374 28.6 59.9707 28C59.9374 27.8333 59.9207 27.6667 59.9207 27.5C59.9207 27.3333 59.904 27.1667 59.8707 27C59.8707 26.6667 59.8707 26.3333 59.8707 26C59.8707 25.6333 59.8374 25.2833 59.7707 24.95V24.15C59.7707 23.8833 59.754 23.6333 59.7207 23.4C59.7207 23.1667 59.704 22.9333 59.6707 22.7C59.6374 22.4 59.604 22.1 59.5707 21.8C59.5707 21.5 59.554 21.2 59.5207 20.9C59.4874 20.8333 59.4707 20.7167 59.4707 20.55C59.4374 20.3833 59.404 20.2167 59.3707 20.05C59.3707 19.85 59.3707 19.6667 59.3707 19.5L59.2207 17C59.1874 16.7333 59.154 16.4833 59.1207 16.25C59.1207 15.9833 59.1207 15.7333 59.1207 15.5C59.0874 15.1 59.054 14.7 59.0207 14.3C58.9874 13.9 58.954 13.5167 58.9207 13.15C58.9207 13.0833 58.904 13.0167 58.8707 12.95C58.8707 12.8833 58.8707 12.8333 58.8707 12.8C58.8707 12.4 58.854 12 58.8207 11.6C58.7874 11.2 58.754 10.7833 58.7207 10.35L58.5707 8.95C58.4707 8.41667 58.454 7.83333 58.5207 7.2C58.5207 6.9 58.6374 6.65 58.8707 6.45C58.9374 6.38333 58.9874 6.35 59.0207 6.35C59.054 6.31667 59.0874 6.28333 59.1207 6.25C59.2874 6.21666 59.3707 6.1 59.3707 5.9C59.3707 5.83333 59.4374 5.8 59.5707 5.8H59.8207C59.854 5.8 59.8707 5.8 59.8707 5.8C59.904 5.76666 59.9374 5.75 59.9707 5.75C60.0374 5.71667 60.0874 5.68333 60.1207 5.65C60.1874 5.58333 60.2374 5.55 60.2707 5.55C60.3374 5.55 60.404 5.56667 60.4707 5.6C60.5374 5.6 60.604 5.61667 60.6707 5.65C60.7374 5.65 60.7874 5.63333 60.8207 5.6C60.9874 5.56667 61.154 5.58333 61.3207 5.65C61.5207 5.68333 61.6874 5.73333 61.8207 5.8C62.0207 5.83333 62.1707 5.96667 62.2707 6.2C62.3707 6.5 62.454 6.8 62.5207 7.1C62.6207 7.36667 62.6874 7.65 62.7207 7.95V8.35C62.7874 8.58333 62.8207 8.83333 62.8207 9.1C62.8207 9.33333 62.8207 9.58333 62.8207 9.85C62.8207 10.0833 62.8207 10.3167 62.8207 10.55C62.854 10.75 62.8874 10.95 62.9207 11.15C62.9207 11.25 62.9207 11.35 62.9207 11.45C62.9207 11.55 62.9374 11.65 62.9707 11.75C62.9707 11.95 62.9707 12.15 62.9707 12.35C63.004 12.55 63.0374 12.7667 63.0707 13C63.104 13.3667 63.1374 13.75 63.1707 14.15C63.204 14.55 63.2207 14.95 63.2207 15.35C63.2207 15.5167 63.2207 15.7 63.2207 15.9C63.2207 16.0667 63.2374 16.2333 63.2707 16.4C63.304 16.5 63.3207 16.6 63.3207 16.7C63.3207 16.8 63.3207 16.9 63.3207 17V18C63.3207 18.2 63.3374 18.3667 63.3707 18.5C63.4374 18.7333 63.454 18.9667 63.4207 19.2C63.4207 19.4 63.4374 19.6167 63.4707 19.85L63.6207 22.15C63.654 22.4833 63.6707 22.8333 63.6707 23.2C63.704 23.5333 63.7207 23.8833 63.7207 24.25C63.7207 24.3833 63.7207 24.5333 63.7207 24.7C63.7207 24.8333 63.7374 24.9667 63.7707 25.1C63.804 25.2 63.8207 25.3 63.8207 25.4C63.8207 25.5 63.8207 25.6 63.8207 25.7C63.854 25.7333 63.854 25.8 63.8207 25.9C63.8207 25.9667 63.8374 26.0333 63.8707 26.1C63.9374 26.3333 63.9707 26.5667 63.9707 26.8C63.9707 27.0333 63.9707 27.2833 63.9707 27.55C63.9707 27.6833 63.9707 27.8333 63.9707 28C64.004 28.1333 64.0207 28.2833 64.0207 28.45C64.054 28.6167 64.0707 28.8 64.0707 29C64.0707 29.2 64.0707 29.3833 64.0707 29.55C64.104 29.7167 64.1207 29.9 64.1207 30.1C64.1207 30.2667 64.1374 30.4333 64.1707 30.6C64.204 30.6667 64.2207 30.7333 64.2207 30.8C64.2207 31.1667 64.254 31.5333 64.3207 31.9C64.3874 32.2667 64.454 32.6333 64.5207 33C64.554 33.1 64.5707 33.2167 64.5707 33.35C64.5707 33.45 64.5707 33.55 64.5707 33.65C64.5707 33.75 64.5374 33.8333 64.4707 33.9C64.3374 34 64.2374 34.2 64.1707 34.5C64.1707 34.6 64.1207 34.6833 64.0207 34.75C63.7874 34.85 63.5874 34.9833 63.4207 35.15C63.154 35.3833 62.8374 35.5 62.4707 35.5ZM74.5348 36C73.9014 36.0667 73.3848 35.8667 72.9848 35.4C72.7848 35.2 72.6014 34.9833 72.4348 34.75C72.2681 34.5167 72.1348 34.2667 72.0348 34C71.8681 33.5333 71.7181 33.0667 71.5848 32.6C71.4514 32.1 71.3348 31.6167 71.2348 31.15C71.1348 30.7833 71.0848 30.4333 71.0848 30.1C71.0514 29.7333 71.0014 29.3833 70.9348 29.05C70.9014 28.6833 70.8848 28.3167 70.8848 27.95C70.8848 27.75 70.8848 27.55 70.8848 27.35C70.8848 27.1167 70.8681 26.9 70.8348 26.7C70.8014 26.5667 70.7848 26.45 70.7848 26.35C70.7848 26.25 70.7848 26.1333 70.7848 26C70.7848 25.5333 70.7848 25.0667 70.7848 24.6C70.7848 24.1 70.7681 23.6167 70.7348 23.15C70.7348 22.8833 70.7181 22.65 70.6848 22.45C70.6514 22.2167 70.5848 21.9833 70.4848 21.75C70.3514 21.3833 70.3348 20.9833 70.4348 20.55C70.4348 20.45 70.4514 20.3833 70.4848 20.35C70.5514 20.1167 70.5848 19.8833 70.5848 19.65C70.6181 19.4167 70.6181 19.1833 70.5848 18.95C70.5514 18.7833 70.5348 18.6167 70.5348 18.45C70.5348 18.2833 70.5348 18.1333 70.5348 18C70.5014 17.6333 70.4848 17.2667 70.4848 16.9C70.5181 16.5 70.5514 16.1167 70.5848 15.75C70.6181 15.65 70.6348 15.55 70.6348 15.45C70.6348 15.35 70.6348 15.25 70.6348 15.15C70.6014 14.7833 70.6014 14.4333 70.6348 14.1C70.7014 13.7667 70.7514 13.4333 70.7848 13.1C70.8514 12.7 70.9181 12.3167 70.9848 11.95C71.0514 11.55 71.1348 11.15 71.2348 10.75C71.3014 10.5833 71.3348 10.4 71.3348 10.2C71.3348 10 71.3348 9.8 71.3348 9.6C71.3348 9.43333 71.3181 9.26667 71.2848 9.1C71.2848 8.93333 71.2848 8.78333 71.2848 8.65C71.2848 8.55 71.2848 8.45 71.2848 8.35C71.2848 8.25 71.3014 8.15 71.3348 8.05C71.3681 7.95 71.3848 7.85 71.3848 7.75C71.3848 7.65 71.4014 7.58333 71.4348 7.55C71.5348 7.41667 71.6181 7.3 71.6848 7.2C71.7514 7.06667 71.8514 6.95 71.9848 6.85C72.1514 6.75 72.3014 6.65 72.4348 6.55C72.6014 6.45 72.7514 6.36667 72.8848 6.3C73.0514 6.23333 73.1848 6.15 73.2848 6.05C73.4181 5.88333 73.5514 5.73333 73.6848 5.6C73.8514 5.43333 73.9848 5.25 74.0848 5.05C74.2514 4.88333 74.4181 4.7 74.5848 4.5C74.7848 4.26666 75.0014 4.08333 75.2348 3.95C75.3014 3.91666 75.4014 3.83333 75.5348 3.7C75.9348 3.33333 76.4014 3.1 76.9348 3C77.0348 2.96666 77.1181 2.95 77.1848 2.95C77.2848 2.91667 77.3848 2.9 77.4848 2.9L77.8348 2.75C78.1014 2.65 78.3348 2.7 78.5348 2.9C78.6014 3 78.6848 3.1 78.7848 3.2C78.9181 3.26667 79.0348 3.33333 79.1348 3.4C79.4014 3.63333 79.6514 3.88333 79.8848 4.15C80.1514 4.41667 80.3848 4.71667 80.5848 5.05C80.9181 5.58333 81.2014 6.11667 81.4348 6.65C81.7014 7.18333 81.9514 7.73333 82.1848 8.3L83.0848 10.45C83.1181 10.65 83.2014 10.8333 83.3348 11C83.6014 11.5 83.8014 12.0167 83.9348 12.55C84.0681 13.05 84.2014 13.5667 84.3348 14.1C84.3681 14.1667 84.3848 14.2333 84.3848 14.3C84.4181 14.3667 84.4348 14.4333 84.4348 14.5C84.5014 14.7667 84.5514 15.05 84.5848 15.35C84.6514 15.6167 84.6681 15.8833 84.6348 16.15C84.6681 16.45 84.6514 16.75 84.5848 17.05C84.5514 17.3167 84.5014 17.5833 84.4348 17.85C84.3348 18.1833 84.2181 18.5 84.0848 18.8C83.9514 19.0667 83.8014 19.35 83.6348 19.65C83.5681 19.85 83.4514 20.0333 83.2848 20.2C83.1181 20.3667 82.9514 20.5167 82.7848 20.65C82.5181 20.7833 82.2514 20.9833 81.9848 21.25C81.9181 21.3167 81.8348 21.3667 81.7348 21.4C81.6681 21.4333 81.6014 21.4833 81.5348 21.55C81.3014 21.65 81.0514 21.7667 80.7848 21.9C80.5181 22 80.2514 22.1 79.9848 22.2C79.9514 22.2 79.9348 22.2333 79.9348 22.3C79.9348 22.3333 79.9514 22.3667 79.9848 22.4L81.3348 23.35C81.5014 23.45 81.6514 23.55 81.7848 23.65C81.9181 23.7167 82.0514 23.8 82.1848 23.9L82.4848 24.05C82.8848 24.2833 83.2848 24.5333 83.6848 24.8C84.0848 25.0667 84.4681 25.3333 84.8348 25.6C85.5348 26.0333 86.2348 26.4833 86.9348 26.95C87.6348 27.3833 88.3014 27.8667 88.9348 28.4C89.5014 28.8333 90.0014 29.3333 90.4348 29.9C90.5348 30 90.6348 30.1167 90.7348 30.25C90.8348 30.35 90.9514 30.4333 91.0848 30.5L91.2348 30.65C91.7681 31.1167 92.0681 31.75 92.1348 32.55C92.1348 32.65 92.1181 32.75 92.0848 32.85C92.0848 32.95 92.0848 33.05 92.0848 33.15C92.0848 33.35 92.0181 33.5167 91.8848 33.65C91.7514 33.7167 91.6848 33.8 91.6848 33.9C91.5848 34.1333 91.4348 34.3 91.2348 34.4C91.0681 34.4667 90.9014 34.5667 90.7348 34.7C90.6681 34.7333 90.5514 34.75 90.3848 34.75C90.1848 34.7167 89.9681 34.6833 89.7348 34.65C89.5348 34.6167 89.3348 34.6 89.1348 34.6C88.8681 34.6 88.5848 34.4833 88.2848 34.25C88.0848 34.0833 87.9014 33.9333 87.7348 33.8C87.5681 33.6333 87.4014 33.4333 87.2348 33.2C86.8014 32.6 86.2348 32.05 85.5348 31.55C85.2014 31.2833 84.8848 31.0333 84.5848 30.8C84.2848 30.5667 83.9514 30.35 83.5848 30.15C83.3514 30.0167 83.1181 29.8833 82.8848 29.75C82.6848 29.5833 82.4514 29.4333 82.1848 29.3C81.3514 28.7333 80.5014 28.1833 79.6348 27.65C78.7681 27.0833 77.9014 26.5167 77.0348 25.95C76.9014 25.85 76.7514 25.75 76.5848 25.65C76.4181 25.55 76.2514 25.45 76.0848 25.35C76.0181 25.2833 75.9181 25.2167 75.7848 25.15C75.6514 25.15 75.5848 25.2 75.5848 25.3C75.5848 25.3333 75.5681 25.3667 75.5348 25.4C75.5348 25.4 75.5348 25.4167 75.5348 25.45C75.5348 25.55 75.5348 25.65 75.5348 25.75C75.5348 25.85 75.5514 25.95 75.5848 26.05C75.6181 26.3167 75.6348 26.5833 75.6348 26.85C75.6348 27.0833 75.6348 27.3333 75.6348 27.6C75.6348 27.8 75.6348 28 75.6348 28.2C75.6681 28.3667 75.7014 28.55 75.7348 28.75C75.7348 28.85 75.7348 28.9667 75.7348 29.1C75.7681 29.2 75.7848 29.3 75.7848 29.4C75.7514 29.7 75.7681 30 75.8348 30.3C75.9014 30.6 75.9514 30.9 75.9848 31.2L76.2848 32.5C76.3181 32.6333 76.3514 32.7833 76.3848 32.95C76.4181 33.0833 76.4514 33.2333 76.4848 33.4C76.5181 33.5333 76.5181 33.6667 76.4848 33.8C76.4848 33.9 76.4681 34.0167 76.4348 34.15C76.4348 34.1833 76.4014 34.2333 76.3348 34.3C76.1681 34.3333 76.0514 34.45 75.9848 34.65C75.8848 34.8833 75.7348 35.0833 75.5348 35.25C75.3681 35.45 75.1848 35.6333 74.9848 35.8C74.9514 35.8333 74.8848 35.8667 74.7848 35.9C74.6848 35.9333 74.6014 35.9667 74.5348 36ZM76.4848 18.5H76.5848C76.9514 18.4333 77.3181 18.3667 77.6848 18.3C78.0848 18.2 78.4681 18.0833 78.8348 17.95C79.2014 17.85 79.5181 17.6667 79.7848 17.4C80.0181 17.1667 80.1348 16.9 80.1348 16.6C80.1681 16.3667 80.1681 16.15 80.1348 15.95C80.1348 15.7167 80.1014 15.4833 80.0348 15.25C79.9014 14.65 79.7514 14.0667 79.5848 13.5C79.4181 12.9 79.2181 12.3333 78.9848 11.8L78.5348 10.6C78.4348 10.2667 78.3181 9.95 78.1848 9.65C78.0514 9.31667 77.9014 9 77.7348 8.7C77.7014 8.63333 77.6681 8.56667 77.6348 8.5C77.6014 8.4 77.5681 8.31666 77.5348 8.25L77.3348 8.05C77.2348 7.91666 77.1181 7.91666 76.9848 8.05C76.9514 8.05 76.9014 8.08333 76.8348 8.15C76.6014 8.45 76.3848 8.76667 76.1848 9.1C76.0181 9.43333 75.9181 9.8 75.8848 10.2C75.8514 10.3333 75.8181 10.4667 75.7848 10.6C75.7848 10.7333 75.7848 10.8833 75.7848 11.05V13.2C75.7514 13.6667 75.7348 14.15 75.7348 14.65C75.7681 15.15 75.7514 15.6333 75.6848 16.1C75.6514 16.2 75.6348 16.3 75.6348 16.4C75.6681 16.5 75.6848 16.6 75.6848 16.7C75.7181 16.9 75.7348 17.1 75.7348 17.3C75.7348 17.4667 75.7348 17.65 75.7348 17.85C75.7348 18.1833 75.7681 18.3833 75.8348 18.45C75.9348 18.5167 76.1514 18.5333 76.4848 18.5Z" fill="#3D8D7A"/>
</svg>
