<svg width="93" height="40" fill="none" xmlns="http://www.w3.org/2000/svg"><path d="M2.75 39.5c-.033 0-.15-.033-.35-.1-.1-.033-.217-.15-.35-.35l-.1-.3a.944.944 0 01-.05-.3c-.1-.5-.15-1-.15-1.5V33.5c0-.3-.033-.6-.1-.9l-.2-.9c0-.067-.033-.167-.1-.3-.033-.1-.083-.2-.15-.3a3.272 3.272 0 00-.2-.35A2.941 2.941 0 01.7 30a7.455 7.455 0 01-.15-.75 5.522 5.522 0 010-1.05c.067-.2.117-.383.15-.55.033-.2.083-.383.15-.55.1-.267.183-.533.25-.8.067-.3.15-.6.25-.9l.75-2.45c.233-.7.533-1.417.9-2.15.367-.7.717-1.483 1.05-2.35.067-.2.15-.417.25-.65.133-.367.267-.717.4-1.05.167-.367.317-.717.45-1.05l.75-2.1c.067-.133.117-.267.15-.4l.1-.4c.267-.667.533-1.3.8-1.9.2-.4.333-.833.4-1.3a4.925 4.925 0 000-1.4l-.1-.6v-.65a.34.34 0 00-.1-.25.463.463 0 010-.3l.1-.2A.783.783 0 007.4 6c.1-.367.25-.683.45-.95.233-.3.483-.567.75-.8.133-.133.317-.233.55-.3a3.27 3.27 0 00.35-.2c.133-.067.25-.15.35-.25a1.18 1.18 0 01.55-.25c.267-.033.55-.133.85-.3.267-.167.567-.217.9-.15h.45c.233 0 .483.083.75.25a.783.783 0 01.2.15c.1.033.2.083.3.15.267.2.4.45.4.75 0 .233.017.45.05.65.067.2.117.417.15.65.067.2.067.417 0 .65a.557.557 0 00-.05.25.444.444 0 01-.05.2c0 .133-.017.267-.05.4 0 .133-.017.267-.05.4-.1.233-.067.467.1.7.267.433.5.883.7 1.35l.7 1.4.9 1.6c.267.433.533.95.8 1.55.067.1.117.2.15.3l.2.3c.1.167.183.35.25.55l.3.6c.267.5.483 1.017.65 1.55.2.5.4 1.033.6 1.6v.1c.033 0 .05.017.05.05.033.233.2.35.5.35.1-.033.2-.05.3-.05h.35c.367 0 .683.067.95.2.167.033.333.133.5.3.267.267.45.483.55.65.1.167.167.417.2.75.133.633 0 1.183-.4 1.65l-.3.25a1.64 1.64 0 01-.25.2.627.627 0 00-.25.15c-.167.133-.267.233-.3.3 0 .067.05.217.15.45l.75 1.8.9 2 1 2c.133.233.233.467.3.7.1.233.167.483.2.75.033.2.033.4 0 .6 0 .2-.017.4-.05.6 0 .033-.033.15-.1.35l-.3.4a2.63 2.63 0 01-.25.4 4.93 4.93 0 00-.65 1.25c-.067.3-.283.533-.65.7-.2.1-.417.1-.65 0-.3-.1-.5-.3-.6-.6l-.1-.25a3.54 3.54 0 00-.45-.95l-.4-.7a5.161 5.161 0 00-.35-.75.385.385 0 01-.05-.15c0-.067-.017-.117-.05-.15-.033-.2-.1-.383-.2-.55-.067-.2-.15-.383-.25-.55-.2-.5-.417-.983-.65-1.45-.2-.5-.417-1-.65-1.5l-.75-1.6-.1-.3a1.95 1.95 0 00-.15-.4l-.6-1.35c0-.067-.033-.167-.1-.3-.167-.267-.383-.417-.65-.45-.233 0-.45-.017-.65-.05s-.4-.05-.6-.05c-.533 0-1.067.05-1.6.15-.533.1-1.033.283-1.5.55-.633.367-1.283.6-1.95.7-.133 0-.267.017-.4.05a1.95 1.95 0 00-.4.15c-.2.133-.317.283-.35.45-.067.2-.1.35-.1.45l-.15.7c-.033.233-.167.467-.4.7-.167.167-.4.25-.7.25-.433-.067-.717-.283-.85-.65l-.1-.3a4.809 4.809 0 01-.1-.35c-.133.2-.15.367-.05.5.067.133.033.25-.1.35-.067.067-.083.117-.05.15.067.133.05.25-.05.35-.1.1-.133.217-.1.35.033.067.033.15 0 .25a2.178 2.178 0 00-.35.85c.033.133-.05.233-.25.3-.067 0-.1.033-.1.1-.067.1-.133.25-.2.45a4.62 4.62 0 01-.15.55 2.85 2.85 0 01-.15.5l-.3 1.25v.2c0 .3-.033.6-.1.9-.033.267-.05.55-.05.85L4.05 36l-.1.7v.8c-.033.2-.067.383-.1.55 0 .2-.033.4-.1.6-.067.3-.183.517-.35.65-.133.2-.35.267-.65.2zm6.5-20.25h.05c.333-.067.65-.117.95-.15l.9-.1c.2-.033.4-.05.6-.05.2-.033.4-.05.6-.05h1.25a.385.385 0 01.15-.05c.067 0 .1-.067.1-.2a2.63 2.63 0 01-.25-.4l-.2-.4a3.783 3.783 0 00-.8-1.2.58.58 0 00-.1-.15l-.1-.2a.782.782 0 00-.15-.2.627.627 0 00-.15-.25c-.167-.133-.333-.1-.5.1l-.15.4c-.033.267-.083.55-.15.85l-.2.8c0 .067-.033.167-.1.3-.067.2-.233.35-.5.45-.233.1-.483.067-.75-.1l-.3-.2h-.1c-.067.133-.1.233-.1.3v.2c.033.067.017.133-.05.2s-.05.1.05.1zm40.048 18.7h-.25c-.1 0-.216-.017-.35-.05h-.35a.75.75 0 01-.6-.15 4.34 4.34 0 01-.45-.4l-.25-.25a.626.626 0 00-.25-.15c-.066-.033-.133-.117-.2-.25a2.43 2.43 0 00-.15-.25 1.26 1.26 0 00-.15-.3 1.01 1.01 0 01-.05-.55c.034-.1.05-.2.05-.3a.556.556 0 00.05-.25v-.95c0-.333-.033-.667-.1-1a.945.945 0 01-.05-.3 1.64 1.64 0 00-.05-.4 2.37 2.37 0 00-.05-.55c0-.167-.016-.317-.05-.45V31a4.62 4.62 0 01-.05-.65c0-.2-.033-.417-.1-.65v-.15c0-.433-.033-.85-.1-1.25a16.96 16.96 0 01-.05-1.3c0-.2-.016-.35-.05-.45l-.1-.9v-1-.9c0-.333-.033-.65-.1-.95a.557.557 0 01-.05-.25v-.25-4.1c0-1.367.017-2.717.05-4.05v-.5c.034-.167.05-.333.05-.5v-.3a.82.82 0 00.05-.25v-1.1c.034-.4.067-.783.1-1.15.067-.1.067-.233 0-.4-.033-.033-.083-.05-.15-.05l-.15.15c-.066.1-.15.2-.25.3-.1.1-.183.2-.25.3-.133.2-.283.417-.45.65-.133.2-.283.417-.45.65-.233.4-.483.817-.75 1.25-.266.4-.466.833-.6 1.3-.033.067-.066.15-.1.25l-.1.2c-.133.333-.283.667-.45 1-.133.3-.266.633-.4 1-.2.433-.483.833-.85 1.2-.066.067-.133.1-.2.1-.166.1-.35.2-.55.3-.2.067-.416.083-.65.05h-.3c-.3.067-.55 0-.75-.2a1.363 1.363 0 01-.6-.35c-.133-.167-.283-.35-.45-.55a2.587 2.587 0 01-.35-.6 2.54 2.54 0 01-.1-.7.557.557 0 01-.05-.25v-.25l-.1-.2a.82.82 0 01-.05-.2c0-.067-.033-.167-.1-.3l-.4-.8c-.2-.4-.3-.583-.3-.55-.1-.167-.2-.35-.3-.55-.1-.2-.216-.383-.35-.55l-.3-.55c-.066 0-.116-.017-.15-.05l-.05.05v.3c0 .1.017.2.05.3a6.134 6.134 0 010 2.2c0 .2.017.367.05.5.034.067.05.183.05.35v.6c.034.2.034.4 0 .6-.033.167-.05.35-.05.55l.1.5v.5a1.08 1.08 0 000 .65c.034.167.034.35 0 .55 0 .167.017.333.05.5 0 .167-.033.383-.1.65-.2.8-.15 1.567.15 2.3l.1.4a.62.62 0 010 .35v.3c0 .1.017.2.05.3.067.133.1.267.1.4.034.367.05.65.05.85.034.2.067.35.1.45.067.367.134.75.2 1.15l.2 1.1.2 1.3c.1.4.15.817.15 1.25 0 .133.017.233.05.3.067.267.1.55.1.85 0 .267.017.533.05.8 0 .367-.083.65-.25.85-.066.133-.1.217-.1.25-.3.633-.833 1-1.6 1.1-.1.033-.2.05-.3.05h-.3c-.366.067-.633 0-.8-.2-.066-.067-.133-.1-.2-.1-.166.033-.333-.067-.5-.3-.1-.167-.25-.317-.45-.45-.1-.1-.183-.267-.25-.5l-.1-.2v-.2a16.676 16.676 0 00-.15-1.35 20.98 20.98 0 01-.15-1.35l-.05-.5a1.47 1.47 0 01-.05-.35c0-.1-.016-.217-.05-.35v-.3c-.1-.467-.15-.933-.15-1.4 0-.5.017-.983.05-1.45.034-.3.05-.6.05-.9 0-.333.017-.65.05-.95V23.1v-.5c0-.2-.016-.383-.05-.55-.033-.2-.05-.4-.05-.6v-2.9a6.45 6.45 0 01-.05-.8v-.85-.3c0-.133-.016-.25-.05-.35 0-.167-.016-.317-.05-.45 0-.167-.016-.317-.05-.45V15c-.066-.3-.1-.583-.1-.85v-.9-.8c0-.3-.033-.567-.1-.8a.945.945 0 01-.05-.3v-.3-.65c0-.233-.033-.467-.1-.7-.033-.067-.05-.183-.05-.35v-2.5-.45a.992.992 0 00-.1-.45c-.1-.333-.083-.717.05-1.15.067-.167.134-.283.2-.35l.2-.3c.067-.1.117-.2.15-.3.067-.1.117-.15.15-.15a.633.633 0 00.3-.15c.1-.067.184-.133.25-.2l.3-.15a.697.697 0 01.3-.05l.5.1c.2 0 .384.017.55.05.2 0 .35.083.45.25l.5.7c.167.233.3.483.4.75.1.233.234.433.4.6l.6.8c.2.267.417.533.65.8.1.1.184.217.25.35.1.133.184.267.25.4.167.233.317.467.45.7.167.2.334.417.5.65l.75 1.2.2.4.2.3c.067.167.167.183.3.05l.4-.5c.167-.2.317-.383.45-.55.3-.367.6-.75.9-1.15.3-.4.617-.783.95-1.15l.3-.45c.234-.333.45-.65.65-.95.234-.333.45-.667.65-1 .234-.367.434-.733.6-1.1.2-.367.367-.733.5-1.1l.6-1.35c.2-.4.484-.733.85-1 .5-.4 1.05-.55 1.65-.45.234.033.45.1.65.2l.6.2c.2.067.334.217.4.45.067.1.117.2.15.3.034.1.05.2.05.3.034.233.084.45.15.65.067.167.117.367.15.6l.05.5.2.9c.1.3.184.6.25.9v.1l.1 1c.067.3.084.617.05.95V9.2c0 .167-.016.333-.05.5-.033.233-.05.467-.05.7v.65c-.033.133-.05.267-.05.4s-.016.267-.05.4c-.033.133-.05.267-.05.4V14.05c0 .233-.016.45-.05.65 0 .2-.016.417-.05.65-.033.133-.05.267-.05.4v4.1l.1.7c.034.167.05.35.05.55v.5c.034.233.05.467.05.7 0 .2.017.433.05.7v.55c.034.267.05.55.05.85V25.85c.067.233.1.483.1.75s.017.533.05.8v.35c.067.2.1.4.1.6 0 .2.017.4.05.6l.15 1.8c.034.133.05.267.05.4.034.1.05.217.05.35.034.133.05.267.05.4 0 .1.017.217.05.35v.15c.034.067.05.133.05.2 0 .233.017.483.05.75.067.267.117.533.15.8l.2 1.4c0 .2-.016.333-.05.4a1.18 1.18 0 01-.25.55c-.1.2-.183.383-.25.55 0 .033-.016.05-.05.05-.233.2-.466.367-.7.5a2.2 2.2 0 01-.75.35zm13.173-2.45c-.2 0-.334-.017-.4-.05a2.732 2.732 0 00-.35-.15l-.3-.1-.3-.2-.2-.3c-.067-.067-.134-.1-.2-.1-.2 0-.3-.1-.3-.3l-.1-.6-.1-.6-.1-.9c0-.3-.034-.583-.1-.85v-.45c0-.133-.017-.25-.05-.35v-.35c-.067-.167-.067-.3 0-.4.066-.6.066-1.2 0-1.8a2.546 2.546 0 01-.05-.5c0-.167-.017-.333-.05-.5v-1c0-.367-.034-.717-.1-1.05v-.8c0-.267-.017-.517-.05-.75 0-.233-.017-.467-.05-.7l-.1-.9c0-.3-.017-.6-.05-.9-.034-.067-.05-.183-.05-.35l-.1-.5v-.55l-.15-2.5a43.185 43.185 0 00-.1-.75v-.75l-.1-1.2c-.034-.4-.067-.783-.1-1.15a.444.444 0 00-.05-.2v-.15c0-.4-.017-.8-.05-1.2-.034-.4-.067-.817-.1-1.25l-.15-1.4a6.05 6.05 0 01-.05-1.75c0-.3.116-.55.35-.75.066-.067.116-.1.15-.1l.1-.1c.166-.033.25-.15.25-.35 0-.067.066-.1.2-.1h.3c.033-.033.066-.05.1-.05a.58.58 0 00.15-.1c.066-.067.116-.1.15-.1.066 0 .133.017.2.05.066 0 .133.017.2.05.066 0 .116-.017.15-.05a.864.864 0 01.5.05c.2.033.366.083.5.15.2.033.35.167.45.4.1.3.183.6.25.9.1.267.166.55.2.85v.4c.066.233.1.483.1.75v1.45l.1.6v.3c0 .1.016.2.05.3v.6c.033.2.066.417.1.65.033.367.066.75.1 1.15.033.4.05.8.05 1.2v.55c0 .167.016.333.05.5.033.1.05.2.05.3V18c0 .2.016.367.05.5.066.233.083.467.05.7 0 .2.016.417.05.65l.15 2.3c.033.333.05.683.05 1.05.033.333.05.683.05 1.05v.45c0 .133.016.267.05.4.033.1.05.2.05.3v.3c.033.033.033.1 0 .2 0 .067.016.133.05.2.066.233.1.467.1.7V28c.033.133.05.283.05.45.033.167.05.35.05.55v.55c.033.167.05.35.05.55 0 .167.016.333.05.5.033.067.05.133.05.2 0 .367.033.733.1 1.1l.2 1.1c.033.1.05.217.05.35v.3a.34.34 0 01-.1.25c-.134.1-.234.3-.3.6 0 .1-.05.183-.15.25-.234.1-.434.233-.6.4-.267.233-.584.35-.95.35zm12.064.5c-.634.067-1.15-.133-1.55-.6a5.15 5.15 0 01-.55-.65 3.244 3.244 0 01-.4-.75 22.675 22.675 0 01-.45-1.4c-.134-.5-.25-.983-.35-1.45-.1-.367-.15-.717-.15-1.05a9.98 9.98 0 00-.15-1.05 12.12 12.12 0 01-.05-1.1v-.6c0-.233-.017-.45-.05-.65a1.465 1.465 0 01-.05-.35V26v-1.4c0-.5-.017-.983-.05-1.45 0-.267-.017-.5-.05-.7a2.77 2.77 0 00-.2-.7c-.134-.367-.15-.767-.05-1.2 0-.1.016-.167.05-.2.066-.233.1-.467.1-.7a2.465 2.465 0 000-.7 2.539 2.539 0 01-.05-.5V18a12.12 12.12 0 01-.05-1.1c.033-.4.066-.783.1-1.15.033-.1.05-.2.05-.3v-.3a5.51 5.51 0 010-1.05c.066-.333.116-.667.15-1 .066-.4.133-.783.2-1.15.066-.4.15-.8.25-1.2.066-.167.1-.35.1-.55v-.6c0-.167-.017-.333-.05-.5v-.45-.3c0-.1.016-.2.05-.3.033-.1.05-.2.05-.3 0-.1.016-.167.05-.2.1-.133.183-.25.25-.35a.991.991 0 01.3-.35c.166-.1.316-.2.45-.3.166-.1.316-.183.45-.25.166-.067.3-.15.4-.25.133-.167.266-.317.4-.45.166-.167.3-.35.4-.55a8.24 8.24 0 00.5-.55c.2-.233.416-.417.65-.55.066-.033.166-.117.3-.25.4-.367.866-.6 1.4-.7.1-.033.183-.05.25-.05.1-.033.2-.05.3-.05l.35-.15c.266-.1.5-.05.7.15.066.1.15.2.25.3.133.067.25.133.35.2.266.233.516.483.75.75.266.267.5.567.7.9.333.533.616 1.067.85 1.6.266.533.516 1.083.75 1.65l.9 2.15c.033.2.116.383.25.55.266.5.466 1.017.6 1.55.133.5.266 1.017.4 1.55.033.067.05.133.05.2.033.067.05.133.05.2.066.267.116.55.15.85.066.267.083.533.05.8.033.3.016.6-.05.9a6.773 6.773 0 01-.15.8c-.1.333-.217.65-.35.95-.134.267-.284.55-.45.85-.067.2-.184.383-.35.55a6.093 6.093 0 01-.5.45 3.13 3.13 0 00-.8.6.627.627 0 01-.25.15.78.78 0 00-.2.15c-.234.1-.484.217-.75.35l-.8.3c-.034 0-.05.033-.05.1 0 .033.016.067.05.1l1.35.95c.166.1.316.2.45.3.133.067.266.15.4.25l.3.15c.4.233.8.483 1.2.75.4.267.783.533 1.15.8.7.433 1.4.883 2.1 1.35.7.433 1.366.917 2 1.45a7.992 7.992 0 011.5 1.5c.1.1.2.217.3.35.1.1.216.183.35.25l.15.15c.533.467.833 1.1.9 1.9 0 .1-.017.2-.05.3v.3c0 .2-.067.367-.2.5-.134.067-.2.15-.2.25-.1.233-.25.4-.45.5a1.99 1.99 0 00-.5.3c-.067.033-.184.05-.35.05-.2-.033-.417-.067-.65-.1-.2-.033-.4-.05-.6-.05-.267 0-.55-.117-.85-.35-.2-.167-.384-.317-.55-.45a4.757 4.757 0 01-.5-.6c-.434-.6-1-1.15-1.7-1.65-.334-.267-.65-.517-.95-.75-.3-.233-.634-.45-1-.65l-.7-.4a3.608 3.608 0 00-.7-.45 66.744 66.744 0 00-2.55-1.65l-2.6-1.7a5.29 5.29 0 00-.45-.3l-.5-.3a1.165 1.165 0 00-.3-.2c-.134 0-.2.05-.2.15 0 .033-.017.067-.05.1v.35c0 .1.016.2.05.3.033.267.05.533.05.8v1.35c.033.167.066.35.1.55v.35c.033.1.05.2.05.3-.034.3-.017.6.05.9.066.3.116.6.15.9l.3 1.3c.033.133.066.283.1.45.033.133.066.283.1.45a.813.813 0 010 .4c0 .1-.017.217-.05.35 0 .033-.034.083-.1.15-.167.033-.284.15-.35.35-.1.233-.25.433-.45.6-.167.2-.35.383-.55.55a.543.543 0 01-.2.1c-.1.033-.184.067-.25.1zm1.95-17.5h.1l1.1-.2c.4-.1.783-.217 1.15-.35.366-.1.683-.283.95-.55.233-.233.35-.5.35-.8.033-.233.033-.45 0-.65a2.54 2.54 0 00-.1-.7c-.134-.6-.284-1.183-.45-1.75-.167-.6-.367-1.167-.6-1.7l-.45-1.2c-.1-.333-.217-.65-.35-.95a8.327 8.327 0 00-.45-.95l-.1-.2a1.954 1.954 0 00-.1-.25l-.2-.2c-.1-.133-.217-.133-.35 0-.034 0-.084.033-.15.1-.234.3-.45.617-.65.95a2.99 2.99 0 00-.3 1.1l-.1.4v2.6c-.034.467-.05.95-.05 1.45.033.5.016.983-.05 1.45-.034.1-.05.2-.05.3.033.1.05.2.05.3.033.2.05.4.05.6v.55c0 .333.033.533.1.6.1.067.316.083.65.05z" fill="#3D8D7A"/></svg>