<svg width="181" height="39" viewBox="0 0 181 39" fill="none" xmlns="http://www.w3.org/2000/svg">
<path d="M6.1 38.3C3.86667 38.3 2.28333 37.6667 1.35 36.4C0.45 35.1 1.19209e-07 33.15 1.19209e-07 30.55C1.19209e-07 28.8833 0.266667 26.3833 0.8 23.05C1.36667 19.6833 2.15 15.2333 3.15 9.7L0.5 4.35C2.06667 3.35 3.73333 2.5 5.5 1.8C7.26667 1.06667 9.03333 0.699999 10.8 0.699999C12.3667 0.699999 13.4 1.16667 13.9 2.1C14.4 3.03333 14.65 4.13333 14.65 5.4C14.65 5.93333 14.55 6.8 14.35 8C14.1833 9.16667 13.95 10.55 13.65 12.15C13.35 13.7167 13.0333 15.3667 12.7 17.1C12.4 18.8333 12.1 20.55 11.8 22.25C11.5 23.9167 11.25 25.45 11.05 26.85C10.8833 28.2167 10.8 29.3333 10.8 30.2H16.2C18.7333 29.8333 21.2833 29.1833 23.85 28.25C23.9833 28.6167 24.0667 29 24.1 29.4C24.1333 29.8 24.15 30.2333 24.15 30.7C24.15 31.8667 23.9167 33.0333 23.45 34.2C22.9833 35.3667 22.2667 36.3333 21.3 37.1C20.3333 37.8667 19.1167 38.25 17.65 38.25C16.2167 38.25 14.9667 38.1167 13.9 37.85C12.8333 37.6167 11.7167 37.3833 10.55 37.15C9.81667 37.55 9.08333 37.8333 8.35 38C7.61667 38.2 6.86667 38.3 6.1 38.3ZM42.9914 38.25C39.3914 38.25 36.2914 37.55 33.6914 36.15C31.1247 34.75 29.1414 32.8 27.7414 30.3C26.3747 27.8 25.6914 24.9333 25.6914 21.7C25.6914 17.5 26.4747 13.8333 28.0414 10.7C29.6414 7.56667 31.9081 5.13333 34.8414 3.4C37.8081 1.63333 41.3581 0.749999 45.4914 0.749999C47.4914 0.749999 48.9081 1.16667 49.7414 2C50.5747 2.8 50.9914 3.98333 50.9914 5.55C50.9914 5.78333 50.9747 6 50.9414 6.2C50.9414 6.4 50.9247 6.63333 50.8914 6.9C52.1581 5.9 53.5247 5.4 54.9914 5.4C56.2247 5.4 57.4081 5.78333 58.5414 6.55C59.6747 7.28333 60.5914 8.43333 61.2914 10C62.0247 11.5667 62.3914 13.55 62.3914 15.95C62.3914 19.5167 61.8414 22.6833 60.7414 25.45C59.6747 28.2167 58.2081 30.55 56.3414 32.45C54.5081 34.35 52.4414 35.8 50.1414 36.8C47.8414 37.7667 45.4581 38.25 42.9914 38.25ZM43.3914 30.95C45.0247 30.95 46.5081 30.3167 47.8414 29.05C49.2081 27.75 50.1414 26.0833 50.6414 24.05C49.4747 22.6167 48.6414 21.1833 48.1414 19.75C47.6747 18.2833 47.4414 16.8333 47.4414 15.4C47.4414 13.9 47.6247 12.5667 47.9914 11.4C48.3581 10.2333 48.8414 9.23333 49.4414 8.4C48.8414 8.3 48.2414 8.25 47.6414 8.25C45.7747 8.25 44.1414 8.65 42.7414 9.45C41.3747 10.25 40.2247 11.3167 39.2914 12.65C38.3914 13.95 37.7081 15.3833 37.2414 16.95C36.8081 18.4833 36.5914 20 36.5914 21.5C36.5914 23.2 36.8414 24.7667 37.3414 26.2C37.8747 27.6333 38.6414 28.7833 39.6414 29.65C40.6747 30.5167 41.9247 30.95 43.3914 30.95ZM72.2621 38.3C70.0288 38.3 68.4454 37.6667 67.5121 36.4C66.6121 35.1 66.1621 33.15 66.1621 30.55C66.1621 28.8833 66.4288 26.3833 66.9621 23.05C67.5288 19.6833 68.3121 15.2333 69.3121 9.7L66.6621 4.35C68.2288 3.35 69.8954 2.5 71.6621 1.8C73.4288 1.1 75.1954 0.749999 76.9621 0.749999C77.8621 0.749999 78.8454 0.883332 79.9121 1.15C81.0121 1.41666 81.8788 1.78333 82.5121 2.25C85.0121 1.25 87.2621 0.749999 89.2621 0.749999C91.4288 0.749999 93.2454 1.25 94.7121 2.25C96.2121 3.25 97.3454 4.55 98.1121 6.15C98.8788 7.75 99.2621 9.46667 99.2621 11.3C99.2621 13.3667 98.7288 15.4167 97.6621 17.45C96.5954 19.4833 94.9621 21.1667 92.7621 22.5C93.4954 24.5667 94.2954 26.5 95.1621 28.3C96.0621 30.0667 96.9954 31.5833 97.9621 32.85C98.9288 34.0833 99.8788 34.9667 100.812 35.5C100.345 36 99.6954 36.4667 98.8621 36.9C98.0288 37.3 97.1454 37.6167 96.2121 37.85C95.2788 38.1167 94.4288 38.25 93.6621 38.25C92.2288 38.25 90.9621 38.0167 89.8621 37.55C88.7621 37.1167 87.7788 36.3 86.9121 35.1C86.0788 33.9 85.2788 32.2167 84.5121 30.05L82.7621 25C81.0288 25 79.2788 24.7333 77.5121 24.2C77.1454 26.3333 76.9621 27.8667 76.9621 28.8C76.9621 30.5 77.0788 31.9333 77.3121 33.1C77.5788 34.2667 77.9621 35.25 78.4621 36.05C76.4621 37.55 74.3954 38.3 72.2621 38.3ZM79.7121 18.75C81.6121 18.75 83.1788 18.4167 84.4121 17.75C85.6788 17.05 86.6121 16.1833 87.2121 15.15C87.8454 14.0833 88.1621 13.0333 88.1621 12C88.1621 10.7333 87.7454 9.61666 86.9121 8.65C86.0788 7.65 84.8288 7.15 83.1621 7.15C82.2954 7.15 81.4288 7.26667 80.5621 7.5C80.4288 8.4 80.2621 9.48333 80.0621 10.75C79.8621 11.9833 79.6454 13.3 79.4121 14.7C79.1788 16.0667 78.8954 17.4 78.5621 18.7C78.7288 18.7333 78.8954 18.75 79.0621 18.75C79.2621 18.75 79.4788 18.75 79.7121 18.75ZM108.932 38.3C106.699 38.3 105.115 37.6667 104.182 36.4C103.282 35.1 102.832 33.15 102.832 30.55C102.832 28.8833 103.099 26.3833 103.632 23.05C104.199 19.6833 104.982 15.2333 105.982 9.7L103.332 4.35C104.899 3.35 106.565 2.5 108.332 1.8C110.099 1.06667 111.865 0.699999 113.632 0.699999C114.765 0.699999 115.599 0.966666 116.132 1.5C116.699 2.03333 117.082 2.7 117.282 3.5C118.449 3.46667 119.815 3.33333 121.382 3.1C122.949 2.86666 124.599 2.56666 126.332 2.2C128.065 1.83333 129.749 1.41667 131.382 0.949999C131.549 1.58333 131.649 2.16667 131.682 2.7C131.749 3.23333 131.782 3.73333 131.782 4.2C131.782 6.1 131.349 7.65 130.482 8.85C129.615 10.05 128.449 10.9333 126.982 11.5C125.549 12.0667 123.965 12.35 122.232 12.35C120.365 12.35 118.499 11.95 116.632 11.15C116.432 12.2833 116.215 13.4833 115.982 14.75C115.749 15.9833 115.499 17.2333 115.232 18.5C115.765 18.6 116.282 18.6833 116.782 18.75C117.315 18.8167 117.849 18.85 118.382 18.85C119.049 18.7167 119.799 18.55 120.632 18.35C121.499 18.1167 122.249 17.9 122.882 17.7C123.015 18.1333 123.082 18.5833 123.082 19.05C123.115 19.4833 123.132 19.8333 123.132 20.1C123.132 21.7 122.582 22.8667 121.482 23.6C120.415 24.3333 119.149 24.7 117.682 24.7C117.049 24.7 116.449 24.6667 115.882 24.6C115.315 24.5 114.749 24.3833 114.182 24.25C114.015 25.25 113.882 26.2 113.782 27.1C113.682 28 113.632 29.0333 113.632 30.2H121.732C124.265 29.8333 126.815 29.1833 129.382 28.25C129.515 28.6167 129.599 29 129.632 29.4C129.665 29.8 129.682 30.2333 129.682 30.7C129.682 31.8667 129.449 33.0333 128.982 34.2C128.515 35.3667 127.799 36.3333 126.832 37.1C125.865 37.8667 124.649 38.25 123.182 38.25C122.415 38.25 121.632 38.1833 120.832 38.05C120.032 37.9167 119.199 37.7667 118.332 37.6C117.699 37.4667 117.015 37.3333 116.282 37.2C115.582 37.0667 114.799 36.95 113.932 36.85C112.332 37.8167 110.665 38.3 108.932 38.3ZM139.889 38.3C137.656 38.3 136.072 37.6667 135.139 36.4C134.239 35.1 133.789 33.15 133.789 30.55C133.789 28.8833 134.056 26.3833 134.589 23.05C135.156 19.6833 135.939 15.2333 136.939 9.7L134.289 4.35C135.856 3.35 137.522 2.5 139.289 1.8C141.056 1.06667 142.822 0.699999 144.589 0.699999C146.189 0.699999 147.589 0.949999 148.789 1.45C150.022 1.91667 151.089 2.83333 151.989 4.2C152.889 5.53333 153.639 7.5 154.239 10.1C154.872 12.6667 155.389 16.05 155.789 20.25H156.389C157.189 17.95 158.189 15.65 159.389 13.35C160.589 11.05 162.022 8.95 163.689 7.05C165.356 5.15 167.289 3.63333 169.489 2.5C171.722 1.33333 174.256 0.749999 177.089 0.749999C178.656 0.749999 179.689 1.21667 180.189 2.15C180.689 3.05 180.939 4.13333 180.939 5.4C180.939 5.93333 180.839 6.8 180.639 8C180.472 9.16667 180.239 10.5333 179.939 12.1C179.639 13.6333 179.322 15.25 178.989 16.95C178.689 18.6167 178.389 20.25 178.089 21.85C177.789 23.4167 177.539 24.8167 177.339 26.05C177.172 27.25 177.089 28.1667 177.089 28.8C177.089 30.5 177.206 31.9333 177.439 33.1C177.706 34.2667 178.089 35.25 178.589 36.05C176.589 37.55 174.522 38.3 172.389 38.3C170.156 38.3 168.572 37.6667 167.639 36.4C166.739 35.1 166.289 33.15 166.289 30.55C166.289 29.1167 166.489 27.0667 166.889 24.4C167.322 21.7333 167.906 18.3 168.639 14.1H167.839C166.406 16 165.156 18.1333 164.089 20.5C163.022 22.8333 162.172 25.1667 161.539 27.5C160.939 29.8 160.539 31.85 160.339 33.65C159.506 34.4167 158.589 35 157.589 35.4C156.622 35.7667 155.656 35.95 154.689 35.95C153.889 35.95 153.139 35.65 152.439 35.05C151.739 34.4167 151.089 33.3167 150.489 31.75C149.889 30.1833 149.356 27.9833 148.889 25.15C148.456 22.2833 148.106 18.6 147.839 14.1H147.039C146.606 16 146.206 17.95 145.839 19.95C145.472 21.9167 145.172 23.7 144.939 25.3C144.706 26.9 144.589 28.0667 144.589 28.8C144.589 30.5 144.706 31.9333 144.939 33.1C145.206 34.2667 145.589 35.25 146.089 36.05C144.089 37.55 142.022 38.3 139.889 38.3Z" fill="white"/>
</svg>
