<svg width="181" height="39" fill="none" xmlns="http://www.w3.org/2000/svg"><path d="M6.1 38.3c-2.233 0-3.817-.633-4.75-1.9C.45 35.1 0 33.15 0 30.55c0-1.667.267-4.167.8-7.5.567-3.367 1.35-7.817 2.35-13.35L.5 4.35c1.567-1 3.233-1.85 5-2.55C7.267 1.067 9.033.7 10.8.7c1.567 0 2.6.467 3.1 1.4.5.933.75 2.033.75 3.3 0 .533-.1 1.4-.3 2.6-.167 1.167-.4 2.55-.7 4.15l-.95 4.95c-.3 1.733-.6 3.45-.9 5.15-.3 1.667-.55 3.2-.75 4.6-.167 1.367-.25 2.483-.25 3.35h5.4c2.533-.367 5.083-1.017 7.65-1.95.133.367.217.75.25 1.15.033.4.05.833.05 1.3 0 1.167-.233 2.333-.7 3.5a6.909 6.909 0 01-2.15 2.9c-.967.767-2.183 1.15-3.65 1.15-1.433 0-2.683-.133-3.75-.4a190.794 190.794 0 00-3.35-.7c-.733.4-1.467.683-2.2.85-.733.2-1.483.3-2.25.3zm36.891-.05c-3.6 0-6.7-.7-9.3-2.1-2.566-1.4-4.55-3.35-5.95-5.85-1.366-2.5-2.05-5.367-2.05-8.6 0-4.2.784-7.867 2.35-11 1.6-3.133 3.867-5.567 6.8-7.3C37.808 1.633 41.358.75 45.491.75c2 0 3.417.417 4.25 1.25.834.8 1.25 1.983 1.25 3.55 0 .233-.016.45-.05.65 0 .2-.016.433-.05.7 1.267-1 2.634-1.5 4.1-1.5 1.234 0 2.417.383 3.55 1.15 1.134.733 2.05 1.883 2.75 3.45.734 1.567 1.1 3.55 1.1 5.95 0 3.567-.55 6.733-1.65 9.5-1.066 2.767-2.533 5.1-4.4 7-1.833 1.9-3.9 3.35-6.2 4.35-2.3.967-4.683 1.45-7.15 1.45zm.4-7.3c1.634 0 3.117-.633 4.45-1.9 1.367-1.3 2.3-2.967 2.8-5-1.166-1.433-2-2.867-2.5-4.3-.466-1.467-.7-2.917-.7-4.35 0-1.5.184-2.833.55-4 .367-1.167.85-2.167 1.45-3-.6-.1-1.2-.15-1.8-.15-1.866 0-3.5.4-4.9 1.2a10.891 10.891 0 00-3.45 3.2c-.9 1.3-1.583 2.733-2.05 4.3a16.674 16.674 0 00-.65 4.55c0 1.7.25 3.267.75 4.7.534 1.433 1.3 2.583 2.3 3.45 1.034.867 2.284 1.3 3.75 1.3zm28.871 7.35c-2.233 0-3.817-.633-4.75-1.9-.9-1.3-1.35-3.25-1.35-5.85 0-1.667.267-4.167.8-7.5.567-3.367 1.35-7.817 2.35-13.35l-2.65-5.35c1.567-1 3.233-1.85 5-2.55 1.767-.7 3.533-1.05 5.3-1.05.9 0 1.883.133 2.95.4 1.1.267 1.967.633 2.6 1.1 2.5-1 4.75-1.5 6.75-1.5 2.167 0 3.983.5 5.45 1.5a9.6 9.6 0 013.4 3.9c.767 1.6 1.15 3.317 1.15 5.15 0 2.067-.533 4.117-1.6 6.15-1.067 2.033-2.7 3.717-4.9 5.05a58.32 58.32 0 002.4 5.8c.9 1.767 1.833 3.283 2.8 4.55.967 1.233 1.917 2.117 2.85 2.65-.467.5-1.117.967-1.95 1.4-.833.4-1.717.717-2.65.95-.933.267-1.783.4-2.55.4-1.433 0-2.7-.233-3.8-.7-1.1-.433-2.083-1.25-2.95-2.45-.833-1.2-1.633-2.883-2.4-5.05L82.762 25c-1.733 0-3.483-.267-5.25-.8-.367 2.133-.55 3.667-.55 4.6 0 1.7.117 3.133.35 4.3.267 1.167.65 2.15 1.15 2.95-2 1.5-4.067 2.25-6.2 2.25zm7.45-19.55c1.9 0 3.467-.333 4.7-1 1.267-.7 2.2-1.567 2.8-2.6.633-1.067.95-2.117.95-3.15 0-1.267-.417-2.383-1.25-3.35-.833-1-2.083-1.5-3.75-1.5-.867 0-1.733.117-2.6.35-.133.9-.3 1.983-.5 3.25-.2 1.233-.417 2.55-.65 3.95a49.93 49.93 0 01-.85 4c.167.033.333.05.5.05h.65zm29.22 19.55c-2.233 0-3.817-.633-4.75-1.9-.9-1.3-1.35-3.25-1.35-5.85 0-1.667.267-4.167.8-7.5.567-3.367 1.35-7.817 2.35-13.35l-2.65-5.35c1.567-1 3.233-1.85 5-2.55 1.767-.733 3.533-1.1 5.3-1.1 1.133 0 1.967.267 2.5.8.567.533.95 1.2 1.15 2 1.167-.033 2.533-.167 4.1-.4a83.103 83.103 0 004.95-.9 74.513 74.513 0 005.05-1.25c.167.633.267 1.217.3 1.75.067.533.1 1.033.1 1.5 0 1.9-.433 3.45-1.3 4.65-.867 1.2-2.033 2.083-3.5 2.65-1.433.567-3.017.85-4.75.85-1.867 0-3.733-.4-5.6-1.2-.2 1.133-.417 2.333-.65 3.6a181.969 181.969 0 01-.75 3.75c.533.1 1.05.183 1.55.25.533.067 1.067.1 1.6.1.667-.133 1.417-.3 2.25-.5.867-.233 1.617-.45 2.25-.65.133.433.2.883.2 1.35.033.433.05.783.05 1.05 0 1.6-.55 2.767-1.65 3.5-1.067.733-2.333 1.1-3.8 1.1-.633 0-1.233-.033-1.8-.1-.567-.1-1.133-.217-1.7-.35-.167 1-.3 1.95-.4 2.85-.1.9-.15 1.933-.15 3.1h8.1c2.533-.367 5.083-1.017 7.65-1.95.133.367.217.75.25 1.15.033.4.05.833.05 1.3 0 1.167-.233 2.333-.7 3.5a6.909 6.909 0 01-2.15 2.9c-.967.767-2.183 1.15-3.65 1.15-.767 0-1.55-.067-2.35-.2s-1.633-.283-2.5-.45a75.84 75.84 0 00-2.05-.4 32.63 32.63 0 00-2.35-.35c-1.6.967-3.267 1.45-5 1.45zm30.957 0c-2.233 0-3.817-.633-4.75-1.9-.9-1.3-1.35-3.25-1.35-5.85 0-1.667.267-4.167.8-7.5.567-3.367 1.35-7.817 2.35-13.35l-2.65-5.35c1.567-1 3.233-1.85 5-2.55 1.767-.733 3.533-1.1 5.3-1.1 1.6 0 3 .25 4.2.75 1.233.467 2.3 1.383 3.2 2.75.9 1.333 1.65 3.3 2.25 5.9.633 2.567 1.15 5.95 1.55 10.15h.6c.8-2.3 1.8-4.6 3-6.9 1.2-2.3 2.633-4.4 4.3-6.3 1.667-1.9 3.6-3.417 5.8-4.55 2.233-1.167 4.767-1.75 7.6-1.75 1.567 0 2.6.467 3.1 1.4.5.9.75 1.983.75 3.25 0 .533-.1 1.4-.3 2.6a89.918 89.918 0 01-.7 4.1l-.95 4.85c-.3 1.667-.6 3.3-.9 4.9-.3 1.567-.55 2.967-.75 4.2-.167 1.2-.25 2.117-.25 2.75 0 1.7.117 3.133.35 4.3.267 1.167.65 2.15 1.15 2.95-2 1.5-4.067 2.25-6.2 2.25-2.233 0-3.817-.633-4.75-1.9-.9-1.3-1.35-3.25-1.35-5.85 0-1.433.2-3.483.6-6.15.433-2.667 1.017-6.1 1.75-10.3h-.8c-1.433 1.9-2.683 4.033-3.75 6.4a45.435 45.435 0 00-2.55 7c-.6 2.3-1 4.35-1.2 6.15a8.95 8.95 0 01-2.75 1.75 8.126 8.126 0 01-2.9.55c-.8 0-1.55-.3-2.25-.9-.7-.633-1.35-1.733-1.95-3.3-.6-1.567-1.133-3.767-1.6-6.6-.433-2.867-.783-6.55-1.05-11.05h-.8c-.433 1.9-.833 3.85-1.2 5.85-.367 1.967-.667 3.75-.9 5.35-.233 1.6-.35 2.767-.35 3.5 0 1.7.117 3.133.35 4.3.267 1.167.65 2.15 1.15 2.95-2 1.5-4.067 2.25-6.2 2.25z" fill="#fff"/></svg>